<svg width="30" height="30" viewBox="0 0 30 30" fill="none" xmlns="http://www.w3.org/2000/svg">
<path d="M20.6822 2.34846C22.1254 0.999511 24.35 0.547621 26.067 1.52453C26.5717 1.81172 27.0461 2.14082 27.4527 2.54735C27.8592 2.95388 28.1883 3.42827 28.4755 3.93303C29.4524 5.65001 29.0005 7.87459 27.6515 9.31776C27.2967 9.69734 26.9403 10.0792 26.5821 10.463C25.6754 11.4345 24.7571 12.4185 23.8239 13.4091C22.9827 14.3021 22.9827 15.6979 23.8239 16.5909C24.7571 17.5815 25.6754 18.5654 26.582 19.5369C26.9403 19.9207 27.2967 20.3026 27.6515 20.6822C29.0005 22.1254 29.4524 24.35 28.4755 26.067C28.1883 26.5717 27.8592 27.0461 27.4526 27.4526C27.0461 27.8592 26.5717 28.1883 26.067 28.4755C24.35 29.4524 22.1254 29.0005 20.6822 27.6515C20.3027 27.2967 19.9208 26.9403 19.5369 26.5821C18.5654 25.6754 17.5815 24.7571 16.5909 23.8239C15.6979 22.9827 14.3021 22.9827 13.4091 23.8239C12.4186 24.757 11.4347 25.6753 10.4632 26.5819C10.0793 26.9402 9.6974 27.2967 9.31777 27.6515C7.87459 29.0005 5.65001 29.4524 3.93302 28.4755C3.42827 28.1883 2.95388 27.8592 2.54735 27.4526C2.14082 27.0461 1.81172 26.5717 1.52453 26.067C0.547621 24.35 0.999512 22.1254 2.34846 20.6822C2.70327 20.3026 3.05969 19.9207 3.41793 19.5369C4.32462 18.5654 5.24294 17.5815 6.17613 16.5909C7.01732 15.6979 7.01732 14.3021 6.17613 13.4091C5.243 12.4186 4.32475 11.4347 3.41812 10.4633C3.05982 10.0794 2.70333 9.69743 2.34846 9.31777C0.999513 7.87459 0.547622 5.65001 1.52453 3.93302C1.81172 3.42827 2.14082 2.95388 2.54735 2.54735C2.95388 2.14082 3.42827 1.81172 3.93303 1.52453C5.65002 0.547623 7.8746 0.999513 9.31777 2.34846C9.69736 2.70327 10.0793 3.05969 10.4631 3.41793C11.4346 4.32462 12.4185 5.24294 13.4091 6.17613C14.3021 7.01732 15.6979 7.01732 16.5909 6.17613C17.5815 5.24295 18.5654 4.32464 19.5369 3.41796C19.9207 3.05971 20.3026 2.70328 20.6822 2.34846Z" fill="black" stroke="black" stroke-width="1.5" stroke-linejoin="round"/>
</svg>
