<svg width="45" height="51" viewBox="0 0 45 51" fill="none" xmlns="http://www.w3.org/2000/svg">
<path d="M28.3477 14.2875C27.8027 14.377 27.4335 14.8913 27.523 15.4363C27.6125 15.9813 28.1269 16.3505 28.6719 16.261L28.3477 14.2875ZM39.7675 12.2577L40.1248 13.1917C40.5666 13.0227 40.8295 12.5673 40.755 12.1001L39.7675 12.2577ZM37.6866 0.646988C37.4916 0.130261 36.9147 -0.130578 36.398 0.0643864C35.8813 0.259353 35.6204 0.836293 35.8154 1.35302L37.6866 0.646988ZM28.6719 16.261C33.3481 15.4929 35.8816 14.8148 40.1248 13.1917L39.4102 11.3237C35.299 12.8963 32.8967 13.5402 28.3477 14.2875L28.6719 16.261ZM35.8154 1.35302C37.4428 5.6662 38.0863 8.06856 38.78 12.4153L40.755 12.1001C40.039 7.61392 39.3595 5.08079 37.6866 0.646988L35.8154 1.35302Z" fill="white"/>
<path d="M35.9762 10.0943L35.389 10.9037L35.424 10.9291L35.461 10.9514L35.9762 10.0943ZM44.9513 35.0344C45.1216 34.509 44.8337 33.945 44.3083 33.7748C43.7829 33.6045 43.219 33.8924 43.0487 34.4178L44.9513 35.0344ZM39.1525 13.1703C39.6259 13.4548 40.2403 13.3017 40.5248 12.8284C40.8093 12.355 40.6562 11.7406 40.1829 11.4561L39.1525 13.1703ZM36.5633 9.28483C32.6254 6.42829 27.8843 4.89173 23.0194 4.89539L23.0209 6.89539C27.4634 6.89205 31.7929 8.2952 35.389 10.9037L36.5633 9.28483ZM23.0194 4.89539C18.1545 4.89905 13.4157 6.44274 9.48206 9.3052L10.6588 10.9223C14.251 8.3084 18.5784 6.89873 23.0209 6.89539L23.0194 4.89539ZM9.48206 9.3052C5.54844 12.1677 2.622 16.2019 1.12215 20.8298L3.02473 21.4465C4.39436 17.2203 7.06674 13.5363 10.6588 10.9223L9.48206 9.3052ZM1.12215 20.8298C-0.3777 25.4578 -0.373951 30.4417 1.13286 35.0673L3.03451 34.4479C1.65851 30.2238 1.65509 25.6726 3.02473 21.4465L1.12215 20.8298ZM1.13286 35.0673C2.63967 39.693 5.57218 43.7228 9.5101 46.5794L10.6845 44.9605C7.08842 42.3519 4.4105 38.6719 3.03451 34.4479L1.13286 35.0673ZM9.5101 46.5794C13.448 49.4359 18.1892 50.9725 23.054 50.9688L23.0525 48.9688C18.61 48.9722 14.2805 47.569 10.6845 44.9605L9.5101 46.5794ZM23.054 50.9688C27.9189 50.9652 32.6578 49.4215 36.5914 46.559L35.4146 44.9419C31.8225 47.5558 27.4951 48.9655 23.0525 48.9688L23.054 50.9688ZM36.5914 46.559C40.525 43.6965 43.4514 39.6623 44.9513 35.0344L43.0487 34.4178C41.6791 38.6439 39.0067 42.3279 35.4146 44.9419L36.5914 46.559ZM35.461 10.9514L39.1525 13.1703L40.1829 11.4561L36.4913 9.2372L35.461 10.9514Z" fill="white"/>
<path d="M28.5106 33.7331L23.1333 27.0115H15.0674" stroke="white" stroke-width="2" stroke-linecap="round" stroke-linejoin="round"/>
</svg>
