<svg width="26" height="27" viewBox="0 0 26 27" fill="none" xmlns="http://www.w3.org/2000/svg">
<path d="M19.2388 11.123C19.8027 11.6352 20.1991 12.424 20.1991 13.4424C20.1991 14.4607 19.8027 15.2495 19.2388 15.7617" stroke="white" stroke-width="1.5" stroke-linecap="round" stroke-linejoin="round"/>
<path d="M22.0454 6.41211C23.7764 7.94701 25.0002 10.3378 25.0002 13.4375C25.0002 16.5371 23.7764 18.9279 22.0454 20.4628" stroke="white" stroke-width="1.5" stroke-linecap="round" stroke-linejoin="round"/>
<path d="M1.56005 9.12434C1.27859 10.3152 1 11.9189 1 13.4389C1 14.9589 1.27859 16.5626 1.56005 17.7535C1.77723 18.6724 2.46969 19.4279 3.38323 19.6669C4.20805 19.8826 5.41702 20.0832 7.44281 20.1415C8.20004 20.1632 8.88721 20.59 9.26286 21.2479C10.1461 22.7947 11.2453 24.3072 12.3585 25.4011C13.288 26.3144 14.5663 25.6226 14.646 24.3219C14.7759 22.202 14.9189 18.6784 14.9189 13.4389C14.9189 8.19937 14.7759 4.67577 14.646 2.55591C14.5663 1.2552 13.288 0.563375 12.3585 1.47673C11.2453 2.57059 10.1461 4.08314 9.26286 5.62995C8.88721 6.2878 8.20004 6.71459 7.44281 6.73636C5.41702 6.79461 4.20805 6.99522 3.38323 7.21095C2.46969 7.4499 1.77723 8.20539 1.56005 9.12434Z" fill="white" stroke="white" stroke-width="1.5" stroke-linecap="round" stroke-linejoin="round"/>
</svg>
