<svg width="26" height="25" viewBox="0 0 26 25" fill="none" xmlns="http://www.w3.org/2000/svg">
<path d="M1.6448 20.6042C1.81246 22.0431 2.96246 23.1829 4.40249 23.3408C7.16664 23.6438 10.0444 24 13 24C15.9556 24 18.8334 23.6438 21.5975 23.3408C23.0375 23.1829 24.1875 22.0431 24.3552 20.6042C24.659 17.997 25 15.2847 25 12.5C25 9.71529 24.659 7.003 24.3552 4.39578C24.1875 2.95685 23.0375 1.81714 21.5975 1.65924C18.8334 1.35615 15.9556 1 13 1C10.0444 1 7.16664 1.35615 4.40249 1.65924C2.96246 1.81714 1.81246 2.95685 1.6448 4.39578C1.34101 7.003 1 9.71529 1 12.5C1 15.2847 1.34101 17.997 1.6448 20.6042Z" fill="white"/>
<path d="M24.3552 4.39578L23.6102 4.48258L24.3552 4.39578ZM21.5975 1.65924L21.5158 2.40477L21.5975 1.65924ZM4.40249 23.3408L4.32075 24.0863L4.40249 23.3408ZM13 23.25C10.095 23.25 7.26504 22.9001 4.48424 22.5952L4.32075 24.0863C7.06824 24.3876 9.99372 24.75 13 24.75V23.25ZM21.5158 22.5952C18.735 22.9001 15.905 23.25 13 23.25V24.75C16.0063 24.75 18.9318 24.3876 21.6793 24.0863L21.5158 22.5952ZM25.1002 20.691C25.4024 18.097 25.75 15.3373 25.75 12.5H24.25C24.25 15.2321 23.9156 17.897 23.6102 20.5174L25.1002 20.691ZM25.75 12.5C25.75 9.66267 25.4024 6.90303 25.1002 4.30898L23.6102 4.48258C23.9156 7.10298 24.25 9.76791 24.25 12.5H25.75ZM13 1.75C15.905 1.75 18.735 2.09986 21.5158 2.40477L21.6793 0.913707C18.9318 0.612447 16.0063 0.25 13 0.25V1.75ZM4.48424 2.40477C7.26504 2.09986 10.095 1.75 13 1.75V0.25C9.99372 0.25 7.06824 0.612447 4.32075 0.913707L4.48424 2.40477ZM0.899837 4.30898C0.597581 6.90303 0.25 9.66267 0.25 12.5H1.75C1.75 9.76791 2.08443 7.10298 2.38976 4.48258L0.899837 4.30898ZM0.25 12.5C0.25 15.3373 0.597581 18.097 0.899837 20.691L2.38976 20.5174C2.08443 17.897 1.75 15.2321 1.75 12.5H0.25ZM25.1002 4.30898C24.8919 2.52189 23.4661 1.10963 21.6793 0.913707L21.5158 2.40477C22.609 2.52464 23.4831 3.39182 23.6102 4.48258L25.1002 4.30898ZM21.6793 24.0863C23.4661 23.8904 24.8919 22.4781 25.1002 20.691L23.6102 20.5174C23.4831 21.6082 22.609 22.4754 21.5158 22.5952L21.6793 24.0863ZM4.32075 0.913707C2.53393 1.10963 1.10807 2.52189 0.899837 4.30898L2.38976 4.48258C2.51685 3.39182 3.39099 2.52464 4.48424 2.40477L4.32075 0.913707ZM4.48424 22.5952C3.39099 22.4754 2.51685 21.6082 2.38976 20.5174L0.899837 20.691C1.10807 22.4781 2.53393 23.8904 4.32075 24.0863L4.48424 22.5952Z" fill="white"/>
<rect width="4.78508" height="10.5" transform="translate(10.6001 8.35938)" fill="white"/>
<path d="M12.9942 13.7113C12.9942 13.0469 13.558 12.6394 14.5527 12.0024C15.4754 11.4116 15.9621 10.6452 15.7456 9.60225C15.5291 8.55925 14.6298 7.69745 13.5415 7.48999C11.8331 7.16433 10.189 8.45738 10.189 10.1267" stroke="#2E0F3D" stroke-width="1.5" stroke-linecap="round" stroke-linejoin="round"/>
<circle cx="13" cy="17" r="1" fill="#2E0F3D"/>
</svg>
