<svg width="36" height="35" viewBox="0 0 36 35" fill="none" xmlns="http://www.w3.org/2000/svg">
<path d="M10.1465 30.695H8.48047V14.6254H10.1465L17.1789 2.0253C17.5322 1.39228 18.2003 1 18.9253 1H21.3794C22.5907 1 23.5239 2.06817 23.3613 3.26847L22.4851 9.73698H27.8991C30.2661 9.73698 35.0002 12.1812 35.0002 17.0696C35.0002 21.958 30.2402 33.1392 25.2051 33.1392C18.5774 33.1392 12.9081 31.5098 10.1465 30.695Z" fill="black"/>
<path d="M8.48047 30.695H7.73047C7.73047 31.1092 8.06626 31.445 8.48047 31.445V30.695ZM10.1465 30.695L10.3588 29.9757C10.2899 29.9553 10.2184 29.945 10.1465 29.945V30.695ZM22.4851 9.73698L21.7419 9.6363C21.7128 9.85081 21.7779 10.0674 21.9203 10.2304C22.0627 10.3934 22.2686 10.487 22.4851 10.487V9.73698ZM8.48047 14.6254V13.8754C8.06626 13.8754 7.73047 14.2112 7.73047 14.6254H8.48047ZM10.1465 14.6254V15.3754C10.4184 15.3754 10.669 15.2283 10.8014 14.9909L10.1465 14.6254ZM17.1789 2.0253L17.8338 2.39081L17.1789 2.0253ZM23.3613 3.26847L22.6181 3.16779V3.16779L23.3613 3.26847ZM8.48047 31.445H10.1465V29.945H8.48047V31.445ZM9.93431 31.4144C12.7071 32.2324 18.4634 33.8892 25.2051 33.8892V32.3892C18.6915 32.3892 13.109 30.7871 10.3588 29.9757L9.93431 31.4144ZM25.2051 33.8892C26.7453 33.8892 28.1655 33.0393 29.3831 31.853C30.6114 30.6564 31.7211 29.0345 32.6524 27.2909C34.504 23.8241 35.7502 19.6821 35.7502 17.0696H34.2502C34.2502 19.3455 33.1163 23.2384 31.3293 26.5842C30.4411 28.247 29.4168 29.726 28.3364 30.7786C27.2454 31.8415 26.1825 32.3892 25.2051 32.3892V33.8892ZM35.7502 17.0696C35.7502 14.3564 34.4286 12.3249 32.8149 10.9919C31.2264 9.6796 29.2871 8.98698 27.8991 8.98698V10.487C28.8782 10.487 30.4894 11.0165 31.8596 12.1484C33.2048 13.2596 34.2502 14.8944 34.2502 17.0696H35.7502ZM27.8991 8.98698H22.4851V10.487H27.8991V8.98698ZM8.48047 15.3754H10.1465V13.8754H8.48047V15.3754ZM10.8014 14.9909L17.8338 2.39081L16.524 1.65979L9.49163 14.2599L10.8014 14.9909ZM18.9253 1.75H21.3794V0.25H18.9253V1.75ZM22.6181 3.16779L21.7419 9.6363L23.2283 9.83765L24.1045 3.36914L22.6181 3.16779ZM7.73047 14.6254V30.695H9.23047V14.6254H7.73047ZM21.3794 1.75C22.1365 1.75 22.7197 2.41761 22.6181 3.16779L24.1045 3.36914C24.3281 1.71874 23.0449 0.25 21.3794 0.25V1.75ZM17.8338 2.39081C18.0546 1.99518 18.4722 1.75 18.9253 1.75V0.25C17.9285 0.25 17.0097 0.789385 16.524 1.65979L17.8338 2.39081Z" fill="#616161"/>
<path d="M1 13.865C1 11.7994 2.67444 10.125 4.73996 10.125V10.125C6.80548 10.125 8.47991 11.7994 8.47991 13.865V30.2588C8.47991 32.3243 6.80548 33.9988 4.73996 33.9988V33.9988C2.67444 33.9988 1 32.3243 1 30.2588V13.865Z" fill="black" stroke="#616161" stroke-width="1.5" stroke-linejoin="round"/>
</svg>
