<svg width="36" height="35" viewBox="0 0 36 35" fill="none" xmlns="http://www.w3.org/2000/svg">
<path d="M10.1465 4.30882H8.48047V20.3764H10.1465L17.1788 32.9748C17.5321 33.6078 18.2003 34 18.9252 34H21.3794C22.5907 34 23.5239 32.9318 23.3613 31.7315L22.4851 25.2642H27.8991C30.2661 25.2642 35.0002 22.8203 35.0002 17.9325C35.0002 13.0447 30.2402 1.86492 25.2051 1.86492C18.5774 1.86492 12.9081 3.49418 10.1465 4.30882Z" fill="black"/>
<path d="M8.48047 4.30882H7.73047C7.73047 3.8946 8.06626 3.55882 8.48047 3.55882V4.30882ZM10.1465 4.30882L10.3587 5.02817C10.2898 5.0485 10.2184 5.05882 10.1465 5.05882V4.30882ZM22.4851 25.2642L21.7419 25.3648C21.7128 25.1503 21.7779 24.9337 21.9203 24.7707C22.0627 24.6077 22.2686 24.5142 22.4851 24.5142V25.2642ZM8.48047 20.3764V21.1264C8.06626 21.1264 7.73047 20.7906 7.73047 20.3764H8.48047ZM10.1465 20.3764V19.6264C10.4184 19.6264 10.6689 19.7734 10.8014 20.0108L10.1465 20.3764ZM17.1788 32.9748L16.524 33.3403V33.3403L17.1788 32.9748ZM23.3613 31.7315L24.1045 31.6308L23.3613 31.7315ZM8.48047 3.55882H10.1465V5.05882H8.48047V3.55882ZM9.93433 3.58946C12.7071 2.7715 18.4635 1.11492 25.2051 1.11492V2.61492C18.6914 2.61492 13.109 4.21687 10.3587 5.02817L9.93433 3.58946ZM25.2051 1.11492C26.7452 1.11492 28.1655 1.96473 29.3831 3.1509C30.6113 4.34738 31.7211 5.96902 32.6523 7.71239C34.504 11.1788 35.7502 15.3202 35.7502 17.9325H34.2502C34.2502 15.6569 33.1163 11.7646 31.3293 8.41915C30.4412 6.7566 29.4168 5.27783 28.3364 4.22536C27.2454 3.16258 26.1825 2.61492 25.2051 2.61492V1.11492ZM35.7502 17.9325C35.7502 20.6454 34.4285 22.6767 32.8149 24.0095C31.2263 25.3216 29.2871 26.0142 27.8991 26.0142V24.5142C28.8782 24.5142 30.4895 23.9847 31.8597 22.853C33.2048 21.7419 34.2502 20.1073 34.2502 17.9325H35.7502ZM27.8991 26.0142H22.4851V24.5142H27.8991V26.0142ZM8.48047 19.6264H10.1465V21.1264H8.48047V19.6264ZM10.8014 20.0108L17.8337 32.6092L16.524 33.3403L9.49165 20.7419L10.8014 20.0108ZM18.9252 33.25H21.3794V34.75H18.9252V33.25ZM22.6181 31.8322L21.7419 25.3648L23.2283 25.1635L24.1045 31.6308L22.6181 31.8322ZM7.73047 20.3764V4.30882H9.23047V20.3764H7.73047ZM21.3794 33.25C22.1364 33.25 22.7197 32.5824 22.6181 31.8322L24.1045 31.6308C24.3281 33.2812 23.0449 34.75 21.3794 34.75V33.25ZM17.8337 32.6092C18.0545 33.0049 18.4721 33.25 18.9252 33.25V34.75C17.9285 34.75 17.0098 34.2107 16.524 33.3403L17.8337 32.6092Z" fill="#616161"/>
<path d="M1 21.1307C1 23.1963 2.67444 24.8707 4.73996 24.8707V24.8707C6.80548 24.8707 8.47991 23.1963 8.47991 21.1307V4.73995C8.47991 2.67443 6.80548 0.999997 4.73996 0.999997V0.999997C2.67444 0.999997 1 2.67443 1 4.73996V21.1307Z" fill="black" stroke="#616161" stroke-width="1.5" stroke-linejoin="round"/>
</svg>
