<svg width="19" height="19" viewBox="0 0 19 19" fill="none" xmlns="http://www.w3.org/2000/svg">
<path d="M11.7303 9.4973L18.5321 2.71136C18.83 2.4135 18.9973 2.00951 18.9973 1.58828C18.9973 1.16704 18.83 0.763055 18.5321 0.465196C18.2342 0.167336 17.8303 0 17.409 0C16.9878 0 16.5838 0.167336 16.2859 0.465196L9.5 7.26696L2.71406 0.465196C2.4162 0.167336 2.01221 -3.13846e-09 1.59098 0C1.16974 3.13846e-09 0.765755 0.167336 0.467895 0.465196C0.170035 0.763055 0.00269951 1.16704 0.00269951 1.58828C0.00269951 2.00951 0.170035 2.4135 0.467895 2.71136L7.26966 9.4973L0.467895 16.2832C0.319635 16.4303 0.201958 16.6052 0.121652 16.798C0.041346 16.9908 0 17.1975 0 17.4063C0 17.6151 0.041346 17.8219 0.121652 18.0146C0.201958 18.2074 0.319635 18.3824 0.467895 18.5294C0.614944 18.6777 0.789894 18.7953 0.982651 18.8756C1.17541 18.956 1.38216 18.9973 1.59098 18.9973C1.79979 18.9973 2.00654 18.956 2.1993 18.8756C2.39206 18.7953 2.56701 18.6777 2.71406 18.5294L9.5 11.7276L16.2859 18.5294C16.433 18.6777 16.6079 18.7953 16.8007 18.8756C16.9935 18.956 17.2002 18.9973 17.409 18.9973C17.6178 18.9973 17.8246 18.956 18.0173 18.8756C18.2101 18.7953 18.3851 18.6777 18.5321 18.5294C18.6804 18.3824 18.798 18.2074 18.8783 18.0146C18.9587 17.8219 19 17.6151 19 17.4063C19 17.1975 18.9587 16.9908 18.8783 16.798C18.798 16.6052 18.6804 16.4303 18.5321 16.2832L11.7303 9.4973Z" fill="#FF0011"/>
</svg>
