<svg width="294" height="294" viewBox="0 0 294 294" fill="none" xmlns="http://www.w3.org/2000/svg">
<path d="M36.84 175V118.04H48.92C53.6133 118.04 57.16 119.32 59.56 121.88C62.0133 124.44 63.24 128.067 63.24 132.76V159.4C63.24 164.733 61.9333 168.68 59.32 171.24C56.76 173.747 53.0533 175 48.2 175H36.84ZM45 125.72V167.32H48.76C51.0533 167.32 52.68 166.76 53.64 165.64C54.6 164.467 55.08 162.653 55.08 160.2V132.76C55.08 130.52 54.6267 128.787 53.72 127.56C52.8133 126.333 51.16 125.72 48.76 125.72H45ZM71.1425 175V118.04H79.3025V175H71.1425ZM84.5906 175V167.8L99.9506 125.72H85.3906V118.04H108.831V124.52L93.1506 167.32H108.831V175H84.5906ZM139.791 158.76V162.28C139.791 164.04 139.445 165.72 138.751 167.32C138.111 168.867 137.205 170.253 136.031 171.48C134.858 172.707 133.471 173.693 131.871 174.44C130.325 175.133 128.645 175.48 126.831 175.48C125.285 175.48 123.711 175.267 122.111 174.84C120.511 174.413 119.071 173.667 117.791 172.6C116.511 171.533 115.445 170.173 114.591 168.52C113.791 166.813 113.391 164.653 113.391 162.04V130.68C113.391 128.813 113.711 127.08 114.351 125.48C114.991 123.88 115.898 122.493 117.071 121.32C118.245 120.147 119.631 119.24 121.231 118.6C122.885 117.907 124.698 117.56 126.671 117.56C130.511 117.56 133.631 118.813 136.031 121.32C137.205 122.547 138.111 124.013 138.751 125.72C139.445 127.373 139.791 129.187 139.791 131.16V134.36H131.631V131.64C131.631 130.04 131.178 128.653 130.271 127.48C129.365 126.307 128.138 125.72 126.591 125.72C124.565 125.72 123.205 126.36 122.511 127.64C121.871 128.867 121.551 130.44 121.551 132.36V161.48C121.551 163.133 121.898 164.52 122.591 165.64C123.338 166.76 124.645 167.32 126.511 167.32C127.045 167.32 127.605 167.24 128.191 167.08C128.831 166.867 129.418 166.547 129.951 166.12C130.431 165.693 130.831 165.107 131.151 164.36C131.471 163.613 131.631 162.68 131.631 161.56V158.76H139.791ZM162.929 155.08L158.929 134.44H158.769L154.769 155.08H162.929ZM142.769 175L155.489 118.04H162.289L175.009 175H166.849L164.449 162.76H153.329L150.929 175H142.769ZM187.188 125.72V143.48H191.828C193.268 143.48 194.414 143.293 195.268 142.92C196.121 142.493 196.788 141.907 197.268 141.16C197.694 140.413 197.988 139.507 198.148 138.44C198.308 137.32 198.388 136.04 198.388 134.6C198.388 133.16 198.308 131.907 198.148 130.84C197.988 129.72 197.668 128.76 197.188 127.96C196.174 126.467 194.254 125.72 191.428 125.72H187.188ZM179.028 175V118.04H192.148C201.748 118.04 206.548 123.613 206.548 134.76C206.548 138.12 206.014 140.973 204.948 143.32C203.934 145.667 202.121 147.56 199.508 149L208.308 175H199.668L192.068 150.68H187.188V175H179.028ZM217.044 175V125.72H207.604V118.04H234.644V125.72H225.204V175H217.044ZM250.351 155.08L246.351 134.44H246.191L242.191 155.08H250.351ZM230.191 175L242.911 118.04H249.711L262.431 175H254.271L251.871 162.76H240.751L238.351 175H230.191Z" fill="white"/>
<g style="mix-blend-mode:hard-light" filter="url(#filter0_f_800_1040)">
<circle cx="147" cy="147" r="137.025" stroke="#F32E7C" stroke-width="1.95"/>
</g>
<g style="mix-blend-mode:hard-light" filter="url(#filter1_f_800_1040)">
<circle cx="147" cy="147" r="136.725" stroke="#FF26C2" stroke-width="2.55"/>
</g>
<g style="mix-blend-mode:hard-light" filter="url(#filter2_ddi_800_1040)">
<circle cx="147" cy="147" r="137.025" stroke="#FB37FF" stroke-opacity="0.2" stroke-width="1.95"/>
</g>
<g filter="url(#filter3_f_800_1040)">
<circle cx="147" cy="147" r="137.4" stroke="#FB37FF" stroke-width="1.2"/>
</g>
<g filter="url(#filter4_f_800_1040)">
<circle cx="147" cy="147" r="137.7" stroke="white" stroke-width="0.6"/>
</g>
<defs>
<filter id="filter0_f_800_1040" x="0" y="0" width="294" height="294" filterUnits="userSpaceOnUse" color-interpolation-filters="sRGB">
<feFlood flood-opacity="0" result="BackgroundImageFix"/>
<feBlend mode="normal" in="SourceGraphic" in2="BackgroundImageFix" result="shape"/>
<feGaussianBlur stdDeviation="4.5" result="effect1_foregroundBlur_800_1040"/>
</filter>
<filter id="filter1_f_800_1040" x="6" y="6" width="282" height="282" filterUnits="userSpaceOnUse" color-interpolation-filters="sRGB">
<feFlood flood-opacity="0" result="BackgroundImageFix"/>
<feBlend mode="normal" in="SourceGraphic" in2="BackgroundImageFix" result="shape"/>
<feGaussianBlur stdDeviation="1.5" result="effect1_foregroundBlur_800_1040"/>
</filter>
<filter id="filter2_ddi_800_1040" x="5.1" y="8.1" width="283.8" height="283.8" filterUnits="userSpaceOnUse" color-interpolation-filters="sRGB">
<feFlood flood-opacity="0" result="BackgroundImageFix"/>
<feColorMatrix in="SourceAlpha" type="matrix" values="0 0 0 0 0 0 0 0 0 0 0 0 0 0 0 0 0 0 127 0" result="hardAlpha"/>
<feOffset dy="1.95"/>
<feGaussianBlur stdDeviation="0.75"/>
<feColorMatrix type="matrix" values="0 0 0 0 0.3 0 0 0 0 0 0 0 0 0 0.26 0 0 0 0.7 0"/>
<feBlend mode="multiply" in2="BackgroundImageFix" result="effect1_dropShadow_800_1040"/>
<feColorMatrix in="SourceAlpha" type="matrix" values="0 0 0 0 0 0 0 0 0 0 0 0 0 0 0 0 0 0 127 0" result="hardAlpha"/>
<feOffset dy="3"/>
<feGaussianBlur stdDeviation="1.95"/>
<feColorMatrix type="matrix" values="0 0 0 0 0.6 0 0 0 0 0 0 0 0 0 0.6 0 0 0 1 0"/>
<feBlend mode="color-dodge" in2="effect1_dropShadow_800_1040" result="effect2_dropShadow_800_1040"/>
<feBlend mode="normal" in="SourceGraphic" in2="effect2_dropShadow_800_1040" result="shape"/>
<feColorMatrix in="SourceAlpha" type="matrix" values="0 0 0 0 0 0 0 0 0 0 0 0 0 0 0 0 0 0 127 0" result="hardAlpha"/>
<feOffset dx="-0.195" dy="0.39"/>
<feGaussianBlur stdDeviation="0.0975"/>
<feComposite in2="hardAlpha" operator="arithmetic" k2="-1" k3="1"/>
<feColorMatrix type="matrix" values="0 0 0 0 1 0 0 0 0 1 0 0 0 0 1 0 0 0 0.5 0"/>
<feBlend mode="normal" in2="shape" result="effect3_innerShadow_800_1040"/>
</filter>
<filter id="filter3_f_800_1040" x="8.7" y="8.7" width="276.6" height="276.6" filterUnits="userSpaceOnUse" color-interpolation-filters="sRGB">
<feFlood flood-opacity="0" result="BackgroundImageFix"/>
<feBlend mode="normal" in="SourceGraphic" in2="BackgroundImageFix" result="shape"/>
<feGaussianBlur stdDeviation="0.15" result="effect1_foregroundBlur_800_1040"/>
</filter>
<filter id="filter4_f_800_1040" x="8.8" y="8.8" width="276.4" height="276.4" filterUnits="userSpaceOnUse" color-interpolation-filters="sRGB">
<feFlood flood-opacity="0" result="BackgroundImageFix"/>
<feBlend mode="normal" in="SourceGraphic" in2="BackgroundImageFix" result="shape"/>
<feGaussianBlur stdDeviation="0.1" result="effect1_foregroundBlur_800_1040"/>
</filter>
</defs>
</svg>
