<svg width="128" height="128" viewBox="0 0 128 128" fill="none" xmlns="http://www.w3.org/2000/svg">
<g style="mix-blend-mode:hard-light" filter="url(#filter0_f_806_830)">
<circle cx="64.0001" cy="64.0001" r="38.4" fill="#FF922D" fill-opacity="0.2"/>
</g>
<g style="mix-blend-mode:hard-light" filter="url(#filter1_f_806_830)">
<circle cx="64" cy="64" r="31.1333" stroke="#FFAB2D" stroke-width="1.73333"/>
</g>
<g style="mix-blend-mode:hard-light" filter="url(#filter2_f_806_830)">
<circle cx="64" cy="64" r="30.8667" stroke="#FFAB2D" stroke-width="2.26667"/>
</g>
<g style="mix-blend-mode:hard-light" filter="url(#filter3_ddi_806_830)">
<circle cx="64" cy="64" r="31.1333" stroke="#FFC940" stroke-opacity="0.2" stroke-width="1.73333"/>
</g>
<g filter="url(#filter4_f_806_830)">
<circle cx="64" cy="64" r="31.4667" stroke="#FFD56A" stroke-width="1.06667"/>
</g>
<g filter="url(#filter5_f_806_830)">
<circle cx="64" cy="64" r="31.7333" stroke="white" stroke-width="0.533333"/>
</g>
<g filter="url(#filter6_f_806_830)">
<path d="M58.9869 53.9257C59.0731 51.7116 60.5219 49.5643 62.6961 49.1368C63.1265 49.0522 63.5613 49 64.0001 49C64.4389 49 64.8737 49.0522 65.3041 49.1368C67.4783 49.5643 68.9271 51.7116 69.0133 53.9257C69.0213 54.1307 69.0293 54.3362 69.0374 54.5422C69.0707 55.3956 69.1044 56.2569 69.136 57.1255C69.1844 58.4556 70.2536 59.5248 71.5837 59.5732C72.4523 59.6048 73.3137 59.6385 74.1671 59.6718C74.3731 59.6799 74.5785 59.6879 74.7835 59.6959C76.9976 59.7821 79.1449 61.2309 79.5724 63.4051C79.657 63.8355 79.7092 64.2703 79.7092 64.7091C79.7092 65.1479 79.657 65.5827 79.5724 66.0131C79.1449 68.1873 76.9976 69.6361 74.7835 69.7223C74.5785 69.7303 74.373 69.7383 74.167 69.7464C73.3136 69.7797 72.4523 69.8134 71.5837 69.845C70.2536 69.8933 69.1844 70.9626 69.136 72.2927C69.1044 73.1613 69.0707 74.0227 69.0374 74.8761C69.0293 75.082 69.0213 75.2875 69.0133 75.4925C68.9271 77.7066 67.4783 79.8539 65.3041 80.2814C64.8737 80.366 64.4389 80.4182 64.0001 80.4182C63.5613 80.4182 63.1265 80.366 62.6961 80.2814C60.5219 79.8539 59.0731 77.7066 58.9869 75.4925C58.9789 75.2875 58.9709 75.082 58.9628 74.8761C58.9295 74.0227 58.8958 73.1613 58.8642 72.2927C58.8159 70.9626 57.7466 69.8933 56.4165 69.845C55.5479 69.8134 54.6865 69.7797 53.8331 69.7463C53.6271 69.7383 53.4217 69.7303 53.2167 69.7223C51.0026 69.6361 48.8553 68.1873 48.4278 66.0131C48.3432 65.5827 48.291 65.1479 48.291 64.7091C48.291 64.2703 48.3432 63.8355 48.4278 63.4051C48.8553 61.2309 51.0026 59.7821 53.2167 59.6959C53.4217 59.6879 53.6272 59.6799 53.8331 59.6718C54.6865 59.6385 55.5479 59.6048 56.4165 59.5732C57.7466 59.5248 58.8159 58.4556 58.8642 57.1255C58.8958 56.2568 58.9295 55.3955 58.9629 54.542C58.9709 54.3361 58.9789 54.1306 58.9869 53.9257Z" fill="white"/>
</g>
<defs>
<filter id="filter0_f_806_830" x="17.6001" y="17.6001" width="92.8" height="92.8" filterUnits="userSpaceOnUse" color-interpolation-filters="sRGB">
<feFlood flood-opacity="0" result="BackgroundImageFix"/>
<feBlend mode="normal" in="SourceGraphic" in2="BackgroundImageFix" result="shape"/>
<feGaussianBlur stdDeviation="4" result="effect1_foregroundBlur_806_830"/>
</filter>
<filter id="filter1_f_806_830" x="24" y="24" width="80" height="80" filterUnits="userSpaceOnUse" color-interpolation-filters="sRGB">
<feFlood flood-opacity="0" result="BackgroundImageFix"/>
<feBlend mode="normal" in="SourceGraphic" in2="BackgroundImageFix" result="shape"/>
<feGaussianBlur stdDeviation="4" result="effect1_foregroundBlur_806_830"/>
</filter>
<filter id="filter2_f_806_830" x="29.3333" y="29.3333" width="69.3333" height="69.3333" filterUnits="userSpaceOnUse" color-interpolation-filters="sRGB">
<feFlood flood-opacity="0" result="BackgroundImageFix"/>
<feBlend mode="normal" in="SourceGraphic" in2="BackgroundImageFix" result="shape"/>
<feGaussianBlur stdDeviation="1.33333" result="effect1_foregroundBlur_806_830"/>
</filter>
<filter id="filter3_ddi_806_830" x="28.5333" y="31.2" width="70.9333" height="70.9333" filterUnits="userSpaceOnUse" color-interpolation-filters="sRGB">
<feFlood flood-opacity="0" result="BackgroundImageFix"/>
<feColorMatrix in="SourceAlpha" type="matrix" values="0 0 0 0 0 0 0 0 0 0 0 0 0 0 0 0 0 0 127 0" result="hardAlpha"/>
<feOffset dy="1.73333"/>
<feGaussianBlur stdDeviation="0.666667"/>
<feColorMatrix type="matrix" values="0 0 0 0 0.224 0 0 0 0 0.15 0 0 0 0 0 0 0 0 0.7 0"/>
<feBlend mode="multiply" in2="BackgroundImageFix" result="effect1_dropShadow_806_830"/>
<feColorMatrix in="SourceAlpha" type="matrix" values="0 0 0 0 0 0 0 0 0 0 0 0 0 0 0 0 0 0 127 0" result="hardAlpha"/>
<feOffset dy="2.66667"/>
<feGaussianBlur stdDeviation="1.73333"/>
<feColorMatrix type="matrix" values="0 0 0 0 0.56 0 0 0 0 0.44 0 0 0 0 0 0 0 0 1 0"/>
<feBlend mode="color-dodge" in2="effect1_dropShadow_806_830" result="effect2_dropShadow_806_830"/>
<feBlend mode="normal" in="SourceGraphic" in2="effect2_dropShadow_806_830" result="shape"/>
<feColorMatrix in="SourceAlpha" type="matrix" values="0 0 0 0 0 0 0 0 0 0 0 0 0 0 0 0 0 0 127 0" result="hardAlpha"/>
<feOffset dx="-0.173333" dy="0.346667"/>
<feGaussianBlur stdDeviation="0.0866667"/>
<feComposite in2="hardAlpha" operator="arithmetic" k2="-1" k3="1"/>
<feColorMatrix type="matrix" values="0 0 0 0 1 0 0 0 0 1 0 0 0 0 1 0 0 0 0.5 0"/>
<feBlend mode="normal" in2="shape" result="effect3_innerShadow_806_830"/>
</filter>
<filter id="filter4_f_806_830" x="31.7333" y="31.7333" width="64.5333" height="64.5333" filterUnits="userSpaceOnUse" color-interpolation-filters="sRGB">
<feFlood flood-opacity="0" result="BackgroundImageFix"/>
<feBlend mode="normal" in="SourceGraphic" in2="BackgroundImageFix" result="shape"/>
<feGaussianBlur stdDeviation="0.133333" result="effect1_foregroundBlur_806_830"/>
</filter>
<filter id="filter5_f_806_830" x="31.8222" y="31.8222" width="64.3556" height="64.3556" filterUnits="userSpaceOnUse" color-interpolation-filters="sRGB">
<feFlood flood-opacity="0" result="BackgroundImageFix"/>
<feBlend mode="normal" in="SourceGraphic" in2="BackgroundImageFix" result="shape"/>
<feGaussianBlur stdDeviation="0.0888889" result="effect1_foregroundBlur_806_830"/>
</filter>
<filter id="filter6_f_806_830" x="48.2037" y="48.9127" width="31.5928" height="31.5928" filterUnits="userSpaceOnUse" color-interpolation-filters="sRGB">
<feFlood flood-opacity="0" result="BackgroundImageFix"/>
<feBlend mode="normal" in="SourceGraphic" in2="BackgroundImageFix" result="shape"/>
<feGaussianBlur stdDeviation="0.0436364" result="effect1_foregroundBlur_806_830"/>
</filter>
</defs>
</svg>
