<svg width="47" height="47" viewBox="0 0 47 47" fill="none" xmlns="http://www.w3.org/2000/svg">
<path d="M2.46812 41.7313C2.61993 43.1722 3.76268 44.314 5.20333 44.4681C11.0459 45.0931 17.1779 46 23.5 46C29.8221 46 35.9541 45.0931 41.7967 44.4681C43.2373 44.314 44.3801 43.1722 44.5319 41.7313C45.1452 35.9094 46 29.7994 46 23.5C46 17.2006 45.1452 11.0905 44.5319 5.26867C44.3801 3.82777 43.2373 2.686 41.7967 2.53189C35.9541 1.90686 29.8221 1 23.5 1C17.1779 1 11.0459 1.90686 5.20333 2.53188C3.76268 2.686 2.61993 3.82777 2.46812 5.26867C1.85475 11.0905 1 17.2006 1 23.5C1 29.7994 1.85475 35.9094 2.46812 41.7313Z" fill="white"/>
<path d="M44.5319 5.26867L43.786 5.34725L44.5319 5.26867ZM41.7967 2.53189L41.7169 3.27763L41.7967 2.53189ZM41.7967 44.4681L41.7169 43.7224L41.7967 44.4681ZM44.5319 41.7313L43.786 41.6528L44.5319 41.7313ZM5.20333 44.4681L5.12356 45.2139L5.20333 44.4681ZM23.5 45.25C17.2307 45.25 11.1651 44.3516 5.28311 43.7224L5.12356 45.2139C10.9267 45.8347 17.125 46.75 23.5 46.75V45.25ZM41.7169 43.7224C35.8349 44.3516 29.7693 45.25 23.5 45.25V46.75C29.875 46.75 36.0733 45.8347 41.8764 45.2139L41.7169 43.7224ZM45.2777 41.8099C45.8876 36.0216 46.75 29.851 46.75 23.5H45.25C45.25 29.7478 44.4029 35.7973 43.786 41.6528L45.2777 41.8099ZM46.75 23.5C46.75 17.149 45.8876 10.9784 45.2777 5.19009L43.786 5.34725C44.4029 11.2027 45.25 17.2522 45.25 23.5H46.75ZM23.5 1.75C29.7693 1.75 35.8349 2.64838 41.7169 3.27763L41.8764 1.78614C36.0733 1.16533 29.875 0.25 23.5 0.25V1.75ZM5.28311 3.27763C11.1651 2.64838 17.2307 1.75 23.5 1.75V0.25C17.125 0.25 10.9267 1.16533 5.12356 1.78614L5.28311 3.27763ZM1.72225 5.19008C1.11242 10.9784 0.25 17.1489 0.25 23.5H1.75C1.75 17.2522 2.59708 11.2027 3.21399 5.34725L1.72225 5.19008ZM0.25 23.5C0.25 29.851 1.11242 36.0216 1.72225 41.8099L3.21399 41.6527C2.59708 35.7973 1.75 29.7478 1.75 23.5H0.25ZM45.2777 5.19009C45.0888 3.39668 43.6677 1.97776 41.8764 1.78614L41.7169 3.27763C42.8069 3.39424 43.6713 4.25887 43.786 5.34725L45.2777 5.19009ZM41.8764 45.2139C43.6677 45.0222 45.0888 43.6033 45.2777 41.8099L43.786 41.6528C43.6713 42.7411 42.8069 43.6058 41.7169 43.7224L41.8764 45.2139ZM5.12356 1.78614C3.33231 1.97776 1.9112 3.39668 1.72225 5.19008L3.21399 5.34725C3.32866 4.25886 4.19305 3.39424 5.28311 3.27763L5.12356 1.78614ZM5.28311 43.7224C4.19306 43.6058 3.32866 42.7411 3.21399 41.6527L1.72225 41.8099C1.9112 43.6033 3.33231 45.0222 5.12356 45.2139L5.28311 43.7224Z" fill="black"/>
<path d="M12.7002 14.5015H27.1002" stroke="black" stroke-width="1.5" stroke-linecap="round" stroke-linejoin="round"/>
<path d="M34.2998 32.4985H19.8998" stroke="black" stroke-width="1.5" stroke-linecap="round" stroke-linejoin="round"/>
<path d="M28.9 19.9009C31.8823 19.9009 34.3 17.4832 34.3 14.5009C34.3 11.5186 31.8823 9.10089 28.9 9.10089C25.9177 9.10089 23.5 11.5186 23.5 14.5009C23.5 17.4832 25.9177 19.9009 28.9 19.9009Z" fill="white" stroke="black" stroke-width="1.5" stroke-linecap="round" stroke-linejoin="round"/>
<path d="M18.1 37.9017C15.1177 37.9017 12.7 35.484 12.7 32.5017C12.7 29.5193 15.1177 27.1017 18.1 27.1017C21.0823 27.1017 23.5 29.5193 23.5 32.5017C23.5 35.484 21.0823 37.9017 18.1 37.9017Z" fill="white" stroke="black" stroke-width="1.5" stroke-linecap="round" stroke-linejoin="round"/>
</svg>
