<svg width="27" height="27" viewBox="0 0 27 27" fill="none" xmlns="http://www.w3.org/2000/svg">
<g clip-path="url(#clip0_1280_2750)">
<path d="M25.3125 6.1875C25.6109 6.1875 25.897 6.06897 26.108 5.858C26.319 5.64702 26.4375 5.36087 26.4375 5.0625V1.6875C26.4375 1.38913 26.319 1.10298 26.108 0.892005C25.897 0.681026 25.6109 0.5625 25.3125 0.5625H21.9375C21.6391 0.5625 21.353 0.681026 21.142 0.892005C20.931 1.10298 20.8125 1.38913 20.8125 1.6875C20.8125 1.83668 20.7532 1.97976 20.6477 2.08525C20.5423 2.19074 20.3992 2.25 20.25 2.25C20.1008 2.25 19.9577 2.19074 19.8523 2.08525C19.7468 1.97976 19.6875 1.83668 19.6875 1.6875C19.6875 1.38913 19.569 1.10298 19.358 0.892005C19.147 0.681026 18.8609 0.5625 18.5625 0.5625H15.1875C14.8891 0.5625 14.603 0.681026 14.392 0.892005C14.181 1.10298 14.0625 1.38913 14.0625 1.6875C14.0625 1.83668 14.0032 1.97976 13.8977 2.08525C13.7923 2.19074 13.6492 2.25 13.5 2.25C13.3508 2.25 13.2077 2.19074 13.1023 2.08525C12.9968 1.97976 12.9375 1.83668 12.9375 1.6875C12.9375 1.38913 12.819 1.10298 12.608 0.892005C12.397 0.681026 12.1109 0.5625 11.8125 0.5625H8.4375C8.13913 0.5625 7.85298 0.681026 7.642 0.892005C7.43103 1.10298 7.3125 1.38913 7.3125 1.6875C7.3125 1.83668 7.25324 1.97976 7.14775 2.08525C7.04226 2.19074 6.89918 2.25 6.75 2.25C6.60082 2.25 6.45774 2.19074 6.35225 2.08525C6.24676 1.97976 6.1875 1.83668 6.1875 1.6875C6.1875 1.38913 6.06897 1.10298 5.858 0.892005C5.64702 0.681026 5.36087 0.5625 5.0625 0.5625H1.6875C1.38913 0.5625 1.10298 0.681026 0.892005 0.892005C0.681026 1.10298 0.5625 1.38913 0.5625 1.6875V5.0625C0.5625 5.36087 0.681026 5.64702 0.892005 5.858C1.10298 6.06897 1.38913 6.1875 1.6875 6.1875C1.83668 6.1875 1.97976 6.24676 2.08525 6.35225C2.19074 6.45774 2.25 6.60082 2.25 6.75C2.25 6.89918 2.19074 7.04226 2.08525 7.14775C1.97976 7.25324 1.83668 7.3125 1.6875 7.3125C1.38913 7.3125 1.10298 7.43103 0.892005 7.642C0.681026 7.85298 0.5625 8.13913 0.5625 8.4375V11.8125C0.5625 12.1109 0.681026 12.397 0.892005 12.608C1.10298 12.819 1.38913 12.9375 1.6875 12.9375C1.83668 12.9375 1.97976 12.9968 2.08525 13.1023C2.19074 13.2077 2.25 13.3508 2.25 13.5C2.25 13.6492 2.19074 13.7923 2.08525 13.8977C1.97976 14.0032 1.83668 14.0625 1.6875 14.0625C1.38913 14.0625 1.10298 14.181 0.892005 14.392C0.681026 14.603 0.5625 14.8891 0.5625 15.1875V18.5625C0.5625 18.8609 0.681026 19.147 0.892005 19.358C1.10298 19.569 1.38913 19.6875 1.6875 19.6875C1.83668 19.6875 1.97976 19.7468 2.08525 19.8523C2.19074 19.9577 2.25 20.1008 2.25 20.25C2.25 20.3992 2.19074 20.5423 2.08525 20.6477C1.97976 20.7532 1.83668 20.8125 1.6875 20.8125C1.38913 20.8125 1.10298 20.931 0.892005 21.142C0.681026 21.353 0.5625 21.6391 0.5625 21.9375V25.3125C0.5625 25.6109 0.681026 25.897 0.892005 26.108C1.10298 26.319 1.38913 26.4375 1.6875 26.4375H5.0625C5.36087 26.4375 5.64702 26.319 5.858 26.108C6.06897 25.897 6.1875 25.6109 6.1875 25.3125C6.1875 25.1633 6.24676 25.0202 6.35225 24.9148C6.45774 24.8093 6.60082 24.75 6.75 24.75C6.89918 24.75 7.04226 24.8093 7.14775 24.9148C7.25324 25.0202 7.3125 25.1633 7.3125 25.3125C7.3125 25.6109 7.43103 25.897 7.642 26.108C7.85298 26.319 8.13913 26.4375 8.4375 26.4375H11.8125C12.1109 26.4375 12.397 26.319 12.608 26.108C12.819 25.897 12.9375 25.6109 12.9375 25.3125C12.9375 25.1633 12.9968 25.0202 13.1023 24.9148C13.2077 24.8093 13.3508 24.75 13.5 24.75C13.6492 24.75 13.7923 24.8093 13.8977 24.9148C14.0032 25.0202 14.0625 25.1633 14.0625 25.3125C14.0625 25.6109 14.181 25.897 14.392 26.108C14.603 26.319 14.8891 26.4375 15.1875 26.4375H18.5625C18.8609 26.4375 19.147 26.319 19.358 26.108C19.569 25.897 19.6875 25.6109 19.6875 25.3125C19.6875 25.1633 19.7468 25.0202 19.8523 24.9148C19.9577 24.8093 20.1008 24.75 20.25 24.75C20.3992 24.75 20.5423 24.8093 20.6477 24.9148C20.7532 25.0202 20.8125 25.1633 20.8125 25.3125C20.8125 25.6109 20.931 25.897 21.142 26.108C21.353 26.319 21.6391 26.4375 21.9375 26.4375H25.3125C25.6109 26.4375 25.897 26.319 26.108 26.108C26.319 25.897 26.4375 25.6109 26.4375 25.3125V21.9375C26.4375 21.6391 26.319 21.353 26.108 21.142C25.897 20.931 25.6109 20.8125 25.3125 20.8125C25.1633 20.8125 25.0202 20.7532 24.9148 20.6477C24.8093 20.5423 24.75 20.3992 24.75 20.25C24.75 20.1008 24.8093 19.9577 24.9148 19.8523C25.0202 19.7468 25.1633 19.6875 25.3125 19.6875C25.6109 19.6875 25.897 19.569 26.108 19.358C26.319 19.147 26.4375 18.8609 26.4375 18.5625V15.1875C26.4375 14.8891 26.319 14.603 26.108 14.392C25.897 14.181 25.6109 14.0625 25.3125 14.0625C25.1633 14.0625 25.0202 14.0032 24.9148 13.8977C24.8093 13.7923 24.75 13.6492 24.75 13.5C24.75 13.3508 24.8093 13.2077 24.9148 13.1023C25.0202 12.9968 25.1633 12.9375 25.3125 12.9375C25.6109 12.9375 25.897 12.819 26.108 12.608C26.319 12.397 26.4375 12.1109 26.4375 11.8125V8.4375C26.4375 8.13913 26.319 7.85298 26.108 7.642C25.897 7.43103 25.6109 7.3125 25.3125 7.3125C25.1633 7.3125 25.0202 7.25324 24.9148 7.14775C24.8093 7.04226 24.75 6.89918 24.75 6.75C24.75 6.60082 24.8093 6.45774 24.9148 6.35225C25.0202 6.24676 25.1633 6.1875 25.3125 6.1875ZM24.1875 4.17375C23.6868 4.39305 23.2608 4.75351 22.9617 5.21104C22.6626 5.66858 22.5033 6.20337 22.5033 6.75C22.5033 7.29663 22.6626 7.83142 22.9617 8.28896C23.2608 8.74649 23.6868 9.10695 24.1875 9.32625V10.9237C23.6868 11.143 23.2608 11.5035 22.9617 11.961C22.6626 12.4186 22.5033 12.9534 22.5033 13.5C22.5033 14.0466 22.6626 14.5814 22.9617 15.039C23.2608 15.4965 23.6868 15.857 24.1875 16.0763V17.6737C23.6868 17.893 23.2608 18.2535 22.9617 18.711C22.6626 19.1686 22.5033 19.7034 22.5033 20.25C22.5033 20.7966 22.6626 21.3314 22.9617 21.789C23.2608 22.2465 23.6868 22.607 24.1875 22.8263V24.1875H22.8263C22.607 23.6868 22.2465 23.2608 21.789 22.9617C21.3314 22.6626 20.7966 22.5033 20.25 22.5033C19.7034 22.5033 19.1686 22.6626 18.711 22.9617C18.2535 23.2608 17.893 23.6868 17.6737 24.1875H16.0763C15.857 23.6868 15.4965 23.2608 15.039 22.9617C14.5814 22.6626 14.0466 22.5033 13.5 22.5033C12.9534 22.5033 12.4186 22.6626 11.961 22.9617C11.5035 23.2608 11.143 23.6868 10.9237 24.1875H9.32625C9.10695 23.6868 8.74649 23.2608 8.28896 22.9617C7.83142 22.6626 7.29663 22.5033 6.75 22.5033C6.20337 22.5033 5.66858 22.6626 5.21104 22.9617C4.75351 23.2608 4.39305 23.6868 4.17375 24.1875H2.8125V22.8263C3.31322 22.607 3.73917 22.2465 4.03828 21.789C4.33739 21.3314 4.49669 20.7966 4.49669 20.25C4.49669 19.7034 4.33739 19.1686 4.03828 18.711C3.73917 18.2535 3.31322 17.893 2.8125 17.6737V16.0763C3.31322 15.857 3.73917 15.4965 4.03828 15.039C4.33739 14.5814 4.49669 14.0466 4.49669 13.5C4.49669 12.9534 4.33739 12.4186 4.03828 11.961C3.73917 11.5035 3.31322 11.143 2.8125 10.9237V9.32625C3.31322 9.10695 3.73917 8.74649 4.03828 8.28896C4.33739 7.83142 4.49669 7.29663 4.49669 6.75C4.49669 6.20337 4.33739 5.66858 4.03828 5.21104C3.73917 4.75351 3.31322 4.39305 2.8125 4.17375V2.8125H4.17375C4.39305 3.31322 4.75351 3.73917 5.21104 4.03828C5.66858 4.33739 6.20337 4.49669 6.75 4.49669C7.29663 4.49669 7.83142 4.33739 8.28896 4.03828C8.74649 3.73917 9.10695 3.31322 9.32625 2.8125H10.9237C11.143 3.31322 11.5035 3.73917 11.961 4.03828C12.4186 4.33739 12.9534 4.49669 13.5 4.49669C14.0466 4.49669 14.5814 4.33739 15.039 4.03828C15.4965 3.73917 15.857 3.31322 16.0763 2.8125H17.6737C17.893 3.31322 18.2535 3.73917 18.711 4.03828C19.1686 4.33739 19.7034 4.49669 20.25 4.49669C20.7966 4.49669 21.3314 4.33739 21.789 4.03828C22.2465 3.73917 22.607 3.31322 22.8263 2.8125H24.1875V4.17375ZM13.5 5.625C11.4114 5.625 9.40838 6.45469 7.93153 7.93153C6.45469 9.40838 5.625 11.4114 5.625 13.5C5.625 15.5886 6.45469 17.5916 7.93153 19.0685C9.40838 20.5453 11.4114 21.375 13.5 21.375C14.8831 21.378 16.242 21.013 17.4375 20.3175C17.5719 20.2472 17.6908 20.1504 17.7868 20.0329C17.8829 19.9155 17.9542 19.7798 17.9965 19.6341C18.0388 19.4884 18.0511 19.3356 18.0328 19.185C18.0145 19.0344 17.966 18.889 17.89 18.7577C17.8141 18.6263 17.7124 18.5117 17.591 18.4206C17.4696 18.3296 17.3311 18.2641 17.1837 18.228C17.0363 18.1919 16.8832 18.1859 16.7334 18.2106C16.5837 18.2352 16.4405 18.2899 16.3125 18.3713C15.2401 18.9904 13.9934 19.2384 12.7658 19.0767C11.5381 18.9151 10.3981 18.3529 9.5225 17.4773C8.64692 16.6017 8.08473 15.4617 7.92312 14.234C7.7615 13.0063 8.0095 11.7597 8.62864 10.6873C9.24779 9.61494 10.2035 8.77684 11.3475 8.303C12.4915 7.82916 13.7599 7.74604 14.956 8.06655C16.152 8.38706 17.2089 9.09328 17.9627 10.0757C18.7165 11.0581 19.125 12.2617 19.125 13.5V14.0625C19.125 14.1851 19.1008 14.3065 19.0539 14.4198C19.007 14.5331 18.9382 14.6361 18.8515 14.7228C18.7648 14.8095 18.6619 14.8782 18.5486 14.9252C18.4353 14.9721 18.3139 14.9963 18.1912 14.9963C17.9426 14.9963 17.7039 14.8983 17.527 14.7235C17.3501 14.5487 17.2492 14.3112 17.2463 14.0625V10.8787C17.2404 10.6482 17.1638 10.4251 17.027 10.2395C16.8901 10.0539 16.6995 9.91489 16.481 9.84124C16.2624 9.76758 16.0266 9.76285 15.8053 9.82769C15.584 9.89253 15.388 10.0238 15.2438 10.2037C14.7091 9.91071 14.1097 9.75602 13.5 9.75375C12.5064 9.75375 11.5536 10.1484 10.851 10.851C10.1484 11.5536 9.75375 12.5064 9.75375 13.5C9.75375 14.4936 10.1484 15.4464 10.851 16.149C11.5536 16.8516 12.5064 17.2463 13.5 17.2463C14.399 17.2464 15.267 16.9184 15.9412 16.3238C16.3885 16.7631 16.9552 17.0611 17.5707 17.1807C18.1861 17.3003 18.8232 17.2362 19.4025 16.9963C19.9817 16.7565 20.4776 16.3515 20.8284 15.8318C21.1791 15.3121 21.3692 14.7007 21.375 14.0738V13.5C21.375 11.4114 20.5453 9.40838 19.0685 7.93153C17.5916 6.45469 15.5886 5.625 13.5 5.625ZM13.5 14.9963C13.2041 14.9963 12.9148 14.9085 12.6687 14.7441C12.4227 14.5797 12.2309 14.346 12.1176 14.0726C12.0044 13.7992 11.9748 13.4983 12.0325 13.2081C12.0902 12.9179 12.2327 12.6512 12.442 12.442C12.6512 12.2327 12.9179 12.0902 13.2081 12.0325C13.4983 11.9748 13.7992 12.0044 14.0726 12.1176C14.346 12.2309 14.5797 12.4227 14.7441 12.6687C14.9085 12.9148 14.9963 13.2041 14.9963 13.5C14.9977 13.6969 14.9601 13.8921 14.8854 14.0744C14.8107 14.2566 14.7006 14.4221 14.5613 14.5613C14.4221 14.7006 14.2566 14.8107 14.0744 14.8854C13.8921 14.9601 13.6969 14.9977 13.5 14.9963Z" fill="white"/>
</g>
<defs>
<clipPath id="clip0_1280_2750">
<rect width="27" height="27" fill="white"/>
</clipPath>
</defs>
</svg>
